<svg width="16" height="13" viewBox="0 0 16 13" fill="none" xmlns="http://www.w3.org/2000/svg">
<path fill-rule="evenodd" clip-rule="evenodd" d="M3.024 3.429C3.07708 3.37225 3.14014 3.32723 3.20956 3.29652C3.27898 3.2658 3.35341 3.24999 3.42857 3.24999C3.50373 3.24999 3.57816 3.2658 3.64758 3.29652C3.717 3.32723 3.78006 3.37225 3.83314 3.429L8 7.87329L12.1669 3.429C12.2742 3.31458 12.4197 3.25031 12.5714 3.25031C12.7232 3.25031 12.8687 3.31458 12.976 3.429C13.0833 3.54341 13.1436 3.69858 13.1436 3.86039C13.1436 4.02219 13.0833 4.17736 12.976 4.29178L8.40457 9.16623C8.35149 9.22298 8.28843 9.268 8.21901 9.29871C8.14959 9.32943 8.07516 9.34524 8 9.34524C7.92484 9.34524 7.85041 9.32943 7.78099 9.29871C7.71157 9.268 7.64851 9.22298 7.59543 9.16623L3.024 4.29178C2.97078 4.23518 2.92856 4.16794 2.89976 4.09391C2.87095 4.01989 2.85612 3.94053 2.85612 3.86039C2.85612 3.78024 2.87095 3.70088 2.89976 3.62686C2.92856 3.55283 2.97078 3.4856 3.024 3.429ZM0 12.3907C0 12.2291 0.0602039 12.0741 0.167368 11.9598C0.274531 11.8456 0.419876 11.7814 0.571429 11.7814H15.4286C15.5801 11.7814 15.7255 11.8456 15.8326 11.9598C15.9398 12.0741 16 12.2291 16 12.3907C16 12.5523 15.9398 12.7073 15.8326 12.8215C15.7255 12.9358 15.5801 13 15.4286 13H0.571429C0.419876 13 0.274531 12.9358 0.167368 12.8215C0.0602039 12.7073 0 12.5523 0 12.3907Z" fill="#CDCDCD"/>
<path d="M3.20952 0.046528C3.1401 0.077245 3.07704 0.122264 3.02396 0.179007C2.97074 0.235606 2.92852 0.302844 2.89972 0.376869C2.87091 0.450894 2.85608 0.530252 2.85608 0.610397C2.85608 0.690542 2.87091 0.7699 2.89972 0.843925C2.92852 0.91795 2.97074 0.985188 3.02396 1.04179L7.59539 5.91625C7.64847 5.97299 7.71152 6.01801 7.78095 6.04873C7.85037 6.07944 7.9248 6.09526 7.99996 6.09526C8.07512 6.09526 8.14955 6.07944 8.21897 6.04873C8.28839 6.01801 8.35145 5.97299 8.40453 5.91625L12.976 1.04179C13.0833 0.927375 13.1435 0.7722 13.1435 0.610397C13.1435 0.448594 13.0833 0.293419 12.976 0.179007C12.8687 0.0645953 12.7231 0.000319596 12.5714 0.000319595C12.4196 0.000319593 12.2741 0.0645953 12.1668 0.179007L7.99996 4.6233L3.8331 0.179007C3.78002 0.122264 3.71696 0.077245 3.64754 0.046528C3.57812 0.0158111 3.50369 0 3.42853 0C3.35337 0 3.27894 0.0158111 3.20952 0.046528Z" fill="#CDCDCD"/>
</svg>
