<svg width="16" height="13" viewBox="0 0 16 13" fill="none" xmlns="http://www.w3.org/2000/svg">
<path fill-rule="evenodd" clip-rule="evenodd" d="M3.024 9.571C3.07708 9.62775 3.14014 9.67277 3.20956 9.70348C3.27898 9.7342 3.35341 9.75001 3.42857 9.75001C3.50373 9.75001 3.57816 9.7342 3.64758 9.70348C3.717 9.67277 3.78006 9.62775 3.83314 9.571L8 5.12671L12.1669 9.571C12.2742 9.68542 12.4197 9.74969 12.5714 9.74969C12.7232 9.74969 12.8687 9.68542 12.976 9.571C13.0833 9.45659 13.1436 9.30142 13.1436 9.13961C13.1436 8.97781 13.0833 8.82264 12.976 8.70822L8.40457 3.83377C8.35149 3.77702 8.28843 3.732 8.21901 3.70129C8.14959 3.67057 8.07516 3.65476 8 3.65476C7.92484 3.65476 7.85041 3.67057 7.78099 3.70129C7.71157 3.732 7.64851 3.77702 7.59543 3.83377L3.024 8.70822C2.97078 8.76482 2.92856 8.83206 2.89976 8.90609C2.87095 8.98011 2.85612 9.05947 2.85612 9.13961C2.85612 9.21976 2.87095 9.29912 2.89976 9.37314C2.92856 9.44717 2.97078 9.5144 3.024 9.571ZM0 0.609306C0 0.770905 0.0602039 0.925887 0.167368 1.04015C0.274531 1.15442 0.419876 1.21862 0.571429 1.21862H15.4286C15.5801 1.21862 15.7255 1.15442 15.8326 1.04015C15.9398 0.925887 16 0.770905 16 0.609306C16 0.447708 15.9398 0.292728 15.8326 0.178461C15.7255 0.0641928 15.5801 0 15.4286 0H0.571429C0.419876 0 0.274531 0.0641928 0.167368 0.178461C0.0602039 0.292728 0 0.447708 0 0.609306Z" fill="#CDCDCD"/>
<path d="M3.20952 12.9535C3.1401 12.9228 3.07704 12.8777 3.02396 12.821C2.97074 12.7644 2.92852 12.6972 2.89972 12.6231C2.87091 12.5491 2.85608 12.4697 2.85608 12.3896C2.85608 12.3095 2.87091 12.2301 2.89972 12.1561C2.92852 12.0821 2.97074 12.0148 3.02396 11.9582L7.59539 7.08375C7.64847 7.02701 7.71152 6.98199 7.78095 6.95127C7.85037 6.92056 7.9248 6.90474 7.99996 6.90474C8.07512 6.90474 8.14955 6.92056 8.21897 6.95127C8.28839 6.98199 8.35145 7.02701 8.40453 7.08375L12.976 11.9582C13.0833 12.0726 13.1435 12.2278 13.1435 12.3896C13.1435 12.5514 13.0833 12.7066 12.976 12.821C12.8687 12.9354 12.7231 12.9997 12.5714 12.9997C12.4196 12.9997 12.2741 12.9354 12.1668 12.821L7.99996 8.3767L3.8331 12.821C3.78002 12.8777 3.71696 12.9228 3.64754 12.9535C3.57812 12.9842 3.50369 13 3.42853 13C3.35337 13 3.27894 12.9842 3.20952 12.9535Z" fill="#CDCDCD"/>
</svg>
