<svg width="163" height="68" viewBox="0 0 163 68" fill="none" xmlns="http://www.w3.org/2000/svg">
<mask id="mask0_538_11005" style="mask-type:alpha" maskUnits="userSpaceOnUse" x="0" y="0" width="145" height="54">
<rect width="145" height="54" rx="10" fill="#EAEAEA"/>
</mask>
<g mask="url(#mask0_538_11005)">
<rect width="145" height="54" rx="10" fill="#EFEFEF"/>
<g opacity="0.99">
<rect x="3" y="3" width="139" height="48" rx="8" fill="white"/>
<g filter="url(#filter0_d_538_11005)">
<path d="M118 32.5C118 27.2533 122.253 23 127.5 23C132.747 23 137 27.2533 137 32.5C137 37.7467 132.747 42 127.5 42C122.253 42 118 37.7467 118 32.5Z" fill="url(#paint0_linear_538_11005)"/>
</g>
<path fill-rule="evenodd" clip-rule="evenodd" d="M130.351 32.4057C130.351 32.6381 130.163 32.8265 129.931 32.8265H127.827V34.9306C127.827 35.163 127.638 35.3514 127.406 35.3514C127.173 35.3514 126.985 35.163 126.985 34.9306V32.8265H124.881C124.648 32.8265 124.46 32.6381 124.46 32.4057C124.46 32.1733 124.648 31.9849 124.881 31.9849H126.985V29.8808C126.985 29.6484 127.173 29.46 127.406 29.46C127.638 29.46 127.827 29.6484 127.827 29.8808V31.9849H129.931C130.163 31.9849 130.351 32.1733 130.351 32.4057Z" fill="white"/>
<g filter="url(#filter1_d_538_11005)">
<rect x="53" y="23" width="40" height="19" rx="9.5" fill="white"/>
<rect x="53.1" y="23.1" width="39.8" height="18.8" rx="9.4" stroke="#EEEEEE" stroke-width="0.2"/>
</g>
<path d="M66.7192 35.474V30.128H66.0172V35.474H66.7192ZM64.3732 33.554H63.2452V31.178H64.3732V33.554ZM65.0812 30.62H62.5432V34.112H65.0812V30.62ZM71.2086 30.128V35.474H71.9046V30.128H71.2086ZM70.7406 33.518C70.0566 33.644 68.9946 33.674 68.4846 33.674V32.588H70.2306V30.584H67.7646V31.142H69.5226V32.03H67.7886V34.25H68.3526C69.2586 34.25 70.2546 34.19 70.8186 34.076L70.7406 33.518ZM77.51 34.808V34.25H75.434V33.212H76.934V30.482H76.232V31.322H73.958V30.494H73.262V33.212H74.732V34.25H72.68V34.808H77.51ZM76.232 32.654H73.958V31.862H76.232V32.654ZM82.2934 35.474V30.128H81.5914V35.474H82.2934ZM80.6494 30.686H78.1534V31.268H79.8934C79.7974 32.33 78.9994 33.446 77.8294 33.98L78.2614 34.508C79.8934 33.62 80.6074 32.3 80.6494 30.686Z" fill="#343434"/>
</g>
<rect y="-26" width="145" height="80" fill="url(#paint1_linear_538_11005)"/>
</g>
<path d="M135.238 35.7098L138.094 40.5421C138.094 40.5421 138.31 39.9358 138.67 39.5817C139.03 39.2275 139.478 38.9718 140.03 38.7783C140.529 38.6028 141.066 38.5509 141.478 38.538C142.057 38.5211 142.567 38.7175 142.974 39.0265L143.173 38.8829C143.649 38.5504 144.406 38.0732 145.124 37.9609C145.854 37.8461 146.681 38.0821 147.201 38.2646C147.405 38.3364 147.59 38.4088 147.744 38.4735L148.674 37.9241C149.12 37.6603 149.617 37.4923 150.131 37.4307C150.645 37.3692 151.165 37.4156 151.659 37.5668C152.152 37.7181 152.608 37.9709 152.996 38.309C153.384 38.647 153.696 39.0628 153.912 39.5296L156.019 44.0878C156.399 44.9087 156.6 45.8014 156.61 46.7076L157.002 51.4998C157.008 51.9874 156.908 52.8108 156.667 53.237C156.426 53.6632 156.002 53.9998 155.294 54.3186L145.227 60.2675C144.782 60.5305 144.273 60.6654 143.757 60.6569C143.241 60.6484 142.738 60.4968 142.306 60.2193L138.09 57.5162L130.225 53.291C129.626 52.9666 129.167 52.4347 128.936 51.795C128.705 51.1554 128.717 50.4521 128.969 49.817C129.222 49.1819 129.698 48.6588 130.308 48.3458C130.917 48.0327 131.619 47.9513 132.282 48.1168L136.226 49.1123L130.559 39.5222C130.125 38.7869 129.416 37.2798 129.655 36.3638C129.872 35.5341 130.276 34.9013 131.018 34.4632C131.759 34.0251 132.643 33.897 133.474 34.1072C134.306 34.3173 134.804 34.9745 135.238 35.7098Z" fill="#FBDDC2"/>
<rect x="159.777" y="57.5398" width="15.7788" height="5.02511" rx="1.3" transform="rotate(149.784 159.777 57.5398)" fill="#D5C0AD"/>
<defs>
<filter id="filter0_d_538_11005" x="106" y="12" width="45" height="45" filterUnits="userSpaceOnUse" color-interpolation-filters="sRGB">
<feFlood flood-opacity="0" result="BackgroundImageFix"/>
<feColorMatrix in="SourceAlpha" type="matrix" values="0 0 0 0 0 0 0 0 0 0 0 0 0 0 0 0 0 0 127 0" result="hardAlpha"/>
<feOffset dx="1" dy="2"/>
<feGaussianBlur stdDeviation="6.5"/>
<feComposite in2="hardAlpha" operator="out"/>
<feColorMatrix type="matrix" values="0 0 0 0 0 0 0 0 0 0 0 0 0 0 0 0 0 0 0.12 0"/>
<feBlend mode="normal" in2="BackgroundImageFix" result="effect1_dropShadow_538_11005"/>
<feBlend mode="normal" in="SourceGraphic" in2="effect1_dropShadow_538_11005" result="shape"/>
</filter>
<filter id="filter1_d_538_11005" x="48" y="19" width="50" height="29" filterUnits="userSpaceOnUse" color-interpolation-filters="sRGB">
<feFlood flood-opacity="0" result="BackgroundImageFix"/>
<feColorMatrix in="SourceAlpha" type="matrix" values="0 0 0 0 0 0 0 0 0 0 0 0 0 0 0 0 0 0 127 0" result="hardAlpha"/>
<feOffset dy="1"/>
<feGaussianBlur stdDeviation="2.5"/>
<feComposite in2="hardAlpha" operator="out"/>
<feColorMatrix type="matrix" values="0 0 0 0 0 0 0 0 0 0 0 0 0 0 0 0 0 0 0.16 0"/>
<feBlend mode="normal" in2="BackgroundImageFix" result="effect1_dropShadow_538_11005"/>
<feBlend mode="normal" in="SourceGraphic" in2="effect1_dropShadow_538_11005" result="shape"/>
</filter>
<linearGradient id="paint0_linear_538_11005" x1="122.75" y1="26.23" x2="130.54" y2="42" gradientUnits="userSpaceOnUse">
<stop stop-color="#FF7138"/>
<stop offset="1" stop-color="#FF520E"/>
</linearGradient>
<linearGradient id="paint1_linear_538_11005" x1="72" y1="6" x2="72" y2="29" gradientUnits="userSpaceOnUse">
<stop stop-color="#F5F5F5"/>
<stop offset="1" stop-color="white" stop-opacity="0"/>
</linearGradient>
</defs>
</svg>
