<svg width="24" height="24" viewBox="0 0 24 24" fill="none" xmlns="http://www.w3.org/2000/svg">
<path d="M9.00004 6.66667C9.00004 7.03486 9.29852 7.33333 9.66671 7.33333C10.0349 7.33333 10.3334 7.03486 10.3334 6.66667C10.3334 6.29848 10.0349 6 9.66671 6C9.29852 6 9.00004 6.29848 9.00004 6.66667Z" fill="#BABABA" stroke="#BABABA"/>
<path d="M14.3333 6.66667C14.3333 7.03486 14.6318 7.33333 15 7.33333C15.3681 7.33333 15.6666 7.03486 15.6666 6.66667C15.6666 6.29848 15.3681 6 15 6C14.6318 6 14.3333 6.29848 14.3333 6.66667Z" fill="#BABABA" stroke="#BABABA"/>
<path d="M9.00004 11.9999C9.00004 12.3681 9.29852 12.6666 9.66671 12.6666C10.0349 12.6666 10.3334 12.3681 10.3334 11.9999C10.3334 11.6317 10.0349 11.3333 9.66671 11.3333C9.29852 11.3333 9.00004 11.6317 9.00004 11.9999Z" fill="#BABABA" stroke="#BABABA"/>
<path d="M14.3333 11.9999C14.3333 12.3681 14.6318 12.6666 15 12.6666C15.3681 12.6666 15.6666 12.3681 15.6666 11.9999C15.6666 11.6317 15.3681 11.3333 15 11.3333C14.6318 11.3333 14.3333 11.6317 14.3333 11.9999Z" fill="#BABABA" stroke="#BABABA"/>
<path d="M9.00004 17.3334C9.00004 17.7016 9.29852 18.0001 9.66671 18.0001C10.0349 18.0001 10.3334 17.7016 10.3334 17.3334C10.3334 16.9652 10.0349 16.6667 9.66671 16.6667C9.29852 16.6667 9.00004 16.9652 9.00004 17.3334Z" fill="#BABABA" stroke="#BABABA"/>
<path d="M14.3333 17.3334C14.3333 17.7016 14.6318 18.0001 15 18.0001C15.3681 18.0001 15.6666 17.7016 15.6666 17.3334C15.6666 16.9652 15.3681 16.6667 15 16.6667C14.6318 16.6667 14.3333 16.9652 14.3333 17.3334Z" fill="#BABABA" stroke="#BABABA"/>
</svg>
