<svg viewBox="0 0 200 200" xmlns="http://www.w3.org/2000/svg">
  <path fill="#A7F0BA" d="M21.2,-40C27.3,-33.1,32.1,-27.2,44.7,-20.7C57.3,-14.2,77.7,-7.1,82.5,2.8C87.3,12.6,76.5,25.3,63.3,30.7C50.1,36.2,34.5,34.4,23.5,37.1C12.6,39.7,6.3,46.9,-1.6,49.7C-9.5,52.5,-19,50.9,-31.8,49.3C-44.5,47.7,-60.5,45.9,-64.1,37.7C-67.8,29.4,-59.1,14.7,-53.6,3.2C-48.1,-8.3,-45.7,-16.7,-44.8,-29.6C-43.8,-42.5,-44.3,-60.1,-37.1,-66.3C-29.9,-72.5,-14.9,-67.5,-3.7,-61.1C7.5,-54.7,15,-46.9,21.2,-40Z" transform="translate(100 100)" />
</svg>