<svg viewBox="0 0 200 200" xmlns="http://www.w3.org/2000/svg">
  <path fill="#BAE6FF" d="M28.8,-46.3C42.5,-41.9,62.4,-44.7,66.3,-38.2C70.1,-31.7,57.9,-15.8,51.8,-3.5C45.6,8.8,45.6,17.5,45.2,30C44.8,42.5,44,58.8,36.5,64.8C28.9,70.8,14.4,66.5,-1,68.3C-16.5,70.2,-33,78,-43,73.4C-52.9,68.7,-56.3,51.6,-60.2,37.3C-64.2,23,-68.7,11.5,-65,2.1C-61.3,-7.2,-49.3,-14.4,-43.7,-25.8C-38.1,-37.3,-38.9,-53,-32.7,-61.7C-26.4,-70.4,-13.2,-72.1,-2.9,-67.2C7.5,-62.2,15,-50.6,28.8,-46.3Z" transform="translate(100 100)" />
</svg>